<?xml version="1.0" encoding="UTF-8"?>
<svg version="1.1" xmlns="http://www.w3.org/2000/svg" width="640" height="216">
<path d="M0 0 C1.29550154 1.07874448 2.58744969 2.16177756 3.875 3.25 C5.20220428 4.25812032 6.5338398 5.26052181 7.875 6.25 C5.85199054 10.68626553 2.89632242 13.63251359 -0.5 17.0625 C-1.0775 17.67287109 -1.655 18.28324219 -2.25 18.91210938 C-3.09691406 19.7696582 -3.09691406 19.7696582 -3.9609375 20.64453125 C-4.47188965 21.16893799 -4.9828418 21.69334473 -5.50927734 22.23364258 C-7.125 23.25 -7.125 23.25 -9.21313477 22.98999023 C-11.42890981 22.13237126 -12.86794266 21.02481263 -14.6875 19.5 C-27.29223189 9.73544047 -41.71690793 7.99618855 -57.125 9.25 C-71.68157265 11.66885337 -83.75377996 18.91358477 -93.125 30.25 C-103.30089989 44.50797873 -106.77092326 60.54692119 -103.91015625 77.73046875 C-100.61876293 92.48442585 -92.83724541 105.33691702 -80.44140625 114.16015625 C-65.61563482 123.43364674 -48.65077675 125.81760353 -31.625 122.125 C-20.47482142 118.77062873 -9.69460101 112.30685219 -3.2734375 102.390625 C0.24911305 95.69257322 1.81770438 89.79341727 3.875 82.25 C-13.285 82.25 -30.445 82.25 -48.125 82.25 C-48.125 74.66 -48.125 67.07 -48.125 59.25 C-23.375 59.25 1.375 59.25 26.875 59.25 C31.78727799 69.07455599 28.07901372 88.16186041 24.875 98.25 C18.48916971 116.9630558 6.40101365 131.16001531 -11.125 140.25 C-31.08854835 148.99471669 -55.49791273 150.99603699 -76.125 143.25 C-98.09091283 134.14833468 -115.45097665 119.03950599 -125 97.0625 C-133.16123115 75.89958335 -133.31227388 54.23615861 -124.125 33.25 C-119.75015393 24.10662092 -114.26537714 16.4814202 -107.125 9.25 C-106.55136719 8.61578125 -105.97773437 7.9815625 -105.38671875 7.328125 C-79.32235525 -20.7890404 -29.70982436 -22.92454637 0 0 Z " fill="#4285F4" transform="translate(131.125,15.75)"/>
<path d="M0 0 C1.07820882 0.89813683 2.14773951 1.80761889 3.1875 2.75 C3.5175 0.44 3.8475 -1.87 4.1875 -4.25 C11.7775 -4.25 19.3675 -4.25 27.1875 -4.25 C27.25549585 9.06812003 27.31044273 22.38612322 27.34293652 35.70437813 C27.35853824 41.88973609 27.37967553 48.0749683 27.41381836 54.26025391 C27.44660846 60.238445 27.46439425 66.21651574 27.47213173 72.19478989 C27.47764013 74.46634691 27.4883959 76.73789796 27.50469017 79.00940323 C27.64506851 99.40503904 26.66893329 117.96954281 11.73046875 133.55859375 C1.17391725 142.65571417 -12.56539989 145.35399214 -26.13671875 145.03515625 C-40.40008435 143.92864648 -52.13408171 138.28620453 -61.8125 127.75 C-65.32289958 123.03329948 -68.49723957 118.52537658 -69.8125 112.75 C-66.71499398 111.38021499 -63.60858343 110.03193428 -60.5 108.6875 C-59.61892578 108.29755859 -58.73785156 107.90761719 -57.83007812 107.50585938 C-56.98251953 107.14169922 -56.13496094 106.77753906 -55.26171875 106.40234375 C-54.09129028 105.89175415 -54.09129028 105.89175415 -52.8972168 105.37084961 C-50.8125 104.75 -50.8125 104.75 -47.8125 105.75 C-46.5234375 107.60546875 -46.5234375 107.60546875 -45.1875 109.9375 C-41.44947299 115.81154244 -36.41489685 119.54920105 -29.8125 121.75 C-20.50455907 122.53976469 -12.6358372 122.39409097 -4.8125 116.75 C0.30516965 112.03635691 2.95334544 105.06475051 3.4375 98.2109375 C3.4375 95.04687867 3.36573189 91.90866522 3.1875 88.75 C2.47464844 89.23210937 1.76179688 89.71421875 1.02734375 90.2109375 C0.06957031 90.84257812 -0.88820313 91.47421875 -1.875 92.125 C-2.81472656 92.75148438 -3.75445312 93.37796875 -4.72265625 94.0234375 C-10.72031822 97.37484912 -16.40156425 98.11567972 -23.125 98.0625 C-23.87410645 98.05686035 -24.62321289 98.0512207 -25.39501953 98.04541016 C-36.97590787 97.79239918 -48.61243203 93.29187346 -57.28515625 85.3984375 C-69.00760165 72.74659106 -74.20348442 59.54671678 -74.0234375 42.40625 C-73.22238183 28.52128508 -67.30199646 16.26235969 -57.7109375 6.296875 C-41.98044525 -7.52560606 -17.93827132 -13.37447084 0 0 Z M-44.1171875 26.23828125 C-49.40203386 34.06813427 -50.9956368 42.43127301 -49.8125 51.75 C-47.85667196 60.40656435 -43.91164813 67.24269571 -36.53515625 72.31640625 C-29.70503719 76.30537762 -23.05269183 78.03299682 -15.1640625 76.1015625 C-6.18178151 73.22231078 -1.29301069 68.94006586 3.0625 60.625 C7.30408982 51.83283037 7.33089191 42.37715577 4.21875 33.19921875 C0.81698991 25.12003855 -3.9640973 19.74555047 -11.8125 15.75 C-24.54519456 11.5575274 -35.94227767 16.22649897 -44.1171875 26.23828125 Z " fill="#4185F4" transform="translate(466.8125,65.25)"/>
<path d="M0 0 C10.84188057 8.63991515 17.06646081 21.44826482 19 35 C20.04773108 50.33314145 16.91506261 64.42861224 6.75 76.1875 C-3.04089114 86.51332393 -14.15077905 93.64810664 -28.69921875 94.3359375 C-46.26198732 94.65551458 -59.81661466 90.97228515 -72.875 78.625 C-83.28556383 67.63916437 -87.3798787 53.31731365 -87.2109375 38.43359375 C-86.31587532 23.86397042 -79.75225181 10.78556671 -69 1 C-48.74415574 -14.84578808 -20.68808176 -15.05993395 0 0 Z M-57 22 C-62.03925937 29.87608709 -63.93783572 37.7008965 -63 47 C-60.83123434 55.92292159 -56.82768677 63.70822196 -49.0625 68.875 C-42.12256796 72.7861192 -35.05915018 74.28486354 -27.29296875 72.3125 C-18.02617748 69.27005143 -13.10381921 65.57852101 -8.625 56.875 C-4.24927127 47.67894979 -3.6812377 39.12672254 -6.96484375 29.3828125 C-10.51778577 21.20434219 -16.86710659 15.56644671 -24.75 11.625 C-38.10429825 9.05686572 -47.9606619 11.77263461 -57 22 Z " fill="#EA4334" transform="translate(254,69)"/>
<path d="M0 0 C1.16789062 0.87978516 1.16789062 0.87978516 2.359375 1.77734375 C13.32514599 10.77442767 19.07451133 23.08561964 21 37 C22.11205486 52.07689762 18.36756079 66.05014427 8.671875 77.828125 C-1.81365683 88.84123076 -14.10741749 94.93668238 -29.38745117 95.47290039 C-44.70981443 95.63183716 -57.18154549 91.83862623 -68.8125 81.5 C-69.8953125 80.2625 -69.8953125 80.2625 -71 79 C-71.71736328 78.25169922 -71.71736328 78.25169922 -72.44921875 77.48828125 C-82.15054107 67.00498837 -85.65252671 53.56226045 -85.28125 39.515625 C-84.07242156 24.40526945 -78.14124984 12.29774827 -67 2 C-47.94984824 -12.93120003 -19.703321 -14.84638348 0 0 Z M-56 24 C-61.02438419 32.26847477 -62.11320277 41.13695173 -60.57421875 50.625 C-58.50622926 58.74471334 -54.00822367 65.28349516 -47 69.9375 C-40.07079907 73.80186206 -32.98155897 75.312804 -25.2578125 73.27734375 C-16.11869066 70.21858617 -10.99419165 65.92853024 -6.2578125 57.546875 C-1.92242004 48.76837847 -1.90499554 39.59751337 -4.96484375 30.41796875 C-8.47674131 22.21470614 -14.86742373 16.56628814 -22.75 12.625 C-36.91771285 9.90043984 -46.45708137 13.27477287 -56 24 Z " fill="#FBBC04" transform="translate(365,68)"/>
<path d="M0 0 C9.36776759 7.34849324 13.83336692 17.85806291 18.0703125 28.62890625 C15.8966126 31.04397741 13.99722781 32.28489144 10.9921875 33.49487305 C10.17282715 33.82919846 9.3534668 34.16352386 8.50927734 34.50798035 C7.62191895 34.86112808 6.73456055 35.21427582 5.8203125 35.578125 C4.89299316 35.95443558 3.96567383 36.33074615 3.01025391 36.71846008 C0.03311995 37.92496131 -2.94807813 39.12101336 -5.9296875 40.31640625 C-8.8424729 41.49175347 -11.75437039 42.66927406 -14.66601562 43.84744263 C-16.58856939 44.62492568 -18.51174563 45.40087131 -20.43554688 46.17526245 C-25.14198742 48.0739518 -29.83292616 50.00093448 -34.5 51.99462891 C-35.37446777 52.36795853 -36.24893555 52.74128815 -37.14990234 53.12593079 C-38.79558574 53.8317526 -40.43926475 54.54227257 -42.08056641 55.25822449 C-47.60296184 57.62890625 -47.60296184 57.62890625 -50.9296875 57.62890625 C-47.79428698 64.16099067 -43.76305301 68.67120588 -36.9140625 71.4453125 C-27.9484374 73.96910067 -20.19745679 72.7627909 -11.9296875 68.62890625 C-9.01148957 66.51705248 -6.45282771 64.19370207 -3.9296875 61.62890625 C-2.9396875 60.63890625 -1.9496875 59.64890625 -0.9296875 58.62890625 C5.0103125 62.58890625 10.9503125 66.54890625 17.0703125 70.62890625 C11.32268292 82.12416542 1.08497785 88.3924965 -10.640625 92.90234375 C-22.9687279 96.81535935 -38.23498796 95.92196786 -49.9296875 90.62890625 C-63.33631349 83.63337486 -72.9561432 73.1491535 -77.8671875 58.69140625 C-81.41650021 43.40717838 -79.81395287 26.97661718 -72.1171875 13.31640625 C-63.83889295 0.57898048 -53.29796223 -6.42533747 -38.453125 -9.9609375 C-23.90268394 -12.32594727 -11.7624654 -8.3575412 0 0 Z M-47.5234375 19.1953125 C-53.12152318 25.32850932 -55.21357474 31.46522081 -55.9296875 39.62890625 C-46.01257144 36.99309434 -36.73505762 32.92790611 -27.3046875 28.94140625 C-25.61608031 28.23195783 -23.92727972 27.52296952 -22.23828125 26.81445312 C-18.13316663 25.09123699 -14.03072339 23.36180555 -9.9296875 21.62890625 C-13.94147895 15.43698529 -17.00810706 12.90293239 -24.1328125 11.05859375 C-32.97595429 9.60535017 -41.18131989 12.96200573 -47.5234375 19.1953125 Z " fill="#EA4334" transform="translate(617.9296875,68.37109375)"/>
<path d="M0 0 C7.59 0 15.18 0 23 0 C23 50.49 23 100.98 23 153 C15.41 153 7.82 153 0 153 C0 102.51 0 52.02 0 0 Z " fill="#33A852" transform="translate(507,7)"/>
</svg>
